<svg xmlns="http://www.w3.org/2000/svg" viewBox="0 0 512 512" version="1.1" id="svg33"><defs id="defs27"><style id="style2">.cls-1{fill:#696969}.cls-3{fill:#cbcbcb}.cls-4{fill:#88e04e}.cls-9{fill:#bfeea1}.cls-10{fill:#8be052}</style></defs><g id="layer1"><rect style="fill:#165898;fill-opacity:1;stroke-width:0" id="rect874" width="512" height="512" x="0" y="0" ry="74.083"/></g><g id="layer2"><g id="g960" transform="matrix(1.47722 0 0 1.47722 -123.506 -1.57)"><path class="cls-1" d="M362.862 147.33l-18.066-8.674a31.987 31.987 0 01-27.192 14.12c-17.217 0-31.17-12.355-31.17-27.608 0-15.252 13.953-27.607 31.17-27.607a31.987 31.987 0 0127.192 14.12l18.066-8.675c-8.825-14.087-25.776-23.628-45.258-23.628-28.556 0-51.701 20.497-51.701 45.79s23.145 45.79 51.701 45.79c19.482 0 36.433-9.54 45.258-23.627z" id="path6" style="fill:#ffffff;stroke-width:1.66511"/><path class="cls-1" d="M254.68 79.56v91.399h-20.53v-65.39l-23.862 41.296h-17.767l-24.427-41.295v65.389h-21.08V79.328h29.972l23.86 39.263 23.579-39.263z" id="path8" style="fill:#ffffff;stroke-width:1.66511"/><path class="cls-1" d="M398.212 105.237a13.77 13.77 0 006.328-11.24c0-8.075-7.86-14.62-17.567-14.62-9.708 0-17.567 6.545-17.567 14.62h10.074a7.493 7.493 0 0114.986 0 7.393 7.393 0 01-2.198 5.295l-22.862 15.336v8.592h35.134v-6.927h-22.696z" id="path10" style="fill:#ffffff;stroke-width:1.66511"/><path class="cls-3" d="M147.78 175.788h19.532v19.531H147.78zm-25.693 0h19.532v19.531h-19.532z" id="path30" style="stroke-width:1.66511"/><path class="cls-9" d="M122.087 150.661h19.532v19.532h-19.532z" id="path32" style="stroke-width:1.66511"/><rect class="cls-10" y="150.661" width="19.532" height="19.532" rx="4.146" id="rect34" x="97.227" style="stroke-width:1.66511"/><path class="cls-3" d="M122.087 125.168h19.532V144.7h-19.532z" id="path36" style="stroke-width:1.66511"/><path class="cls-10" d="M122.07 99.36h19.532v19.53H122.07z" id="path38" style="stroke-width:1.66511"/></g><g id="g950" transform="matrix(1.8251 0 0 1.8251 -251.09 -251.442)"><path fill="#fe0000" d="M259.424 279.05h16.575v16.576h-16.575z" id="path12" style="stroke-width:1.36199"/><path class="cls-1" d="M259.424 299.249h16.575V354h-16.575zm20.362-3.623h20.43V354h16.125v-58.375h20.648V279.05h-57.203z" id="path14" style="fill:#ffffff;stroke-width:1.36199"/><path class="cls-3" d="M320.904 299.249h15.976v15.976h-15.976z" id="path16" style="stroke-width:1.36199"/><path class="cls-4" d="M341.675 299.249h15.976v15.976h-15.976z" id="path18" style="stroke-width:1.36199"/><path fill="#bed9ac" d="M279.935 299.249h15.977v15.976h-15.977z" id="path20" style="stroke-width:1.36199"/><path class="cls-4" d="M279.935 318.644h15.977v15.976h-15.977z" id="path22" style="stroke-width:1.36199"/><path fill="#bfd9ad" d="M300.406 357.95h15.976v15.977h-15.976z" id="path24" style="stroke-width:1.36199"/><path fill="#c2efa6" d="M279.935 358.182h15.977v15.976h-15.977z" id="path26" style="stroke-width:1.36199"/><rect x="259.723" y="358.182" width="15.976" height="15.976" rx="3.078" fill="#82de47" id="rect28" style="stroke-width:1.36199"/><rect class="cls-9" x="362.241" y="299.249" width="15.976" height="15.976" rx="3.364" id="rect40" style="stroke-width:1.36199"/></g></g></svg>
